<?xml version="1.0" encoding="utf-8"?>
<!-- Generator: Adobe Illustrator 18.1.1, SVG Export Plug-In . SVG Version: 6.00 Build 0)  -->
<svg version="1.1" id="Ebene_1" xmlns="http://www.w3.org/2000/svg" xmlns:xlink="http://www.w3.org/1999/xlink" x="0px" y="0px"
	 viewBox="0 0 34.5 34.8" enable-background="new 0 0 34.5 34.8" xml:space="preserve">
<g transform="translate(90,0)">
	<g>
		<path fill="#FFFFFF" stroke="#010202" stroke-width="1.5" stroke-linejoin="round" d="M-86.2,31.2c3.4-1,10.1,0.4,13.5-2
			c3.4,2.4,10.1,1,13.5,2c0,0,1.7,0.5,3,2c-0.7,1-1.7,1-3,0.5c-3.4-1-10.1,0.5-13.5-1c-3.4,1.5-10.1,0-13.5,1
			c-1.4,0.5-2.3,0.5-3-0.5C-87.9,31.3-86.2,31.2-86.2,31.2z"/>
		<path fill="#FFFFFF" stroke="#010202" stroke-width="1.5" stroke-linejoin="round" d="M-80.2,27.2c2.5,2.5,12.5,2.5,15,0
			c0.5-1.5,0-2,0-2c0-2.5-2.5-4-2.5-4c5.5-1.5,6-11.5-5-15.5c-11,4-10.5,14-5,15.5c0,0-2.5,1.5-2.5,4
			C-80.2,25.2-80.8,25.8-80.2,27.2z"/>
		<path fill="#FFFFFF" stroke="#010202" stroke-width="1.5" stroke-linejoin="round" d="M-70.2,3.2c0,1.4-1.1,2.5-2.5,2.5
			s-2.5-1.1-2.5-2.5s1.1-2.5,2.5-2.5S-70.2,1.9-70.2,3.2z"/>
	</g>
	<path fill="none" stroke="#010202" stroke-width="1.5" stroke-linecap="round" d="M-77.8,21.2h10 M-80.2,25.2h15 M-72.8,10.7v5
		 M-75.2,13.2h5"/>
</g>
</svg>
