<?xml version="1.0" encoding="utf-8"?>
<!-- Generator: Adobe Illustrator 18.1.1, SVG Export Plug-In . SVG Version: 6.00 Build 0)  -->
<svg version="1.1" id="Ebene_1" xmlns="http://www.w3.org/2000/svg" xmlns:xlink="http://www.w3.org/1999/xlink" x="0px" y="0px"
	 viewBox="0 0 28.5 31.5" enable-background="new 0 0 28.5 31.5" xml:space="preserve">
<g transform="translate(180,45)">
	<path fill="#010202" stroke="#010202" stroke-width="1.5" stroke-linejoin="round" d="M-179.2-14.3h27v-3h-27V-14.3z"/>
	<path fill="#010202" stroke="#010202" stroke-width="1.5" stroke-linejoin="round" d="M-175.8-21.2l1.5-2.5h17l1.5,2.5H-175.8z"/>
	<path fill="#010202" stroke="#010202" stroke-width="1.5" stroke-linejoin="round" d="M-176.2-17.2v-4h21v4H-176.2z"/>
	<path fill="#010202" stroke="#010202" stroke-width="1.5" d="M-174.2-23.8v-13h17v13H-174.2z"/>
	<path fill="#010202" stroke="#010202" stroke-width="1.5" stroke-linejoin="round" d="M-174.2-36.8l-3-2.5h23l-3,2.5H-174.2z"/>
	<path fill="#010202" stroke="#010202" stroke-width="1.5" stroke-linejoin="round" d="M-177.2-39.2v-5h4v2h5v-2h5v2h5v-2h4v5
		H-177.2z"/>
	<path fill="none" stroke="#FFFFFF" stroke-linecap="round" d="M-176.2-17.8h21l0,0"/>
	<path fill="none" stroke="#FFFFFF" stroke-linecap="round" d="M-175.2-21.8h19"/>
	<path fill="none" stroke="#FFFFFF" stroke-linecap="round" d="M-174.2-23.8h17"/>
	<path fill="none" stroke="#FFFFFF" stroke-linecap="round" d="M-174.2-36.8h17"/>
	<path fill="none" stroke="#FFFFFF" stroke-linecap="round" d="M-177.2-39.2h23"/>
</g>
</svg>
