<?xml version="1.0" encoding="utf-8"?>
<!-- Generator: Adobe Illustrator 18.1.1, SVG Export Plug-In . SVG Version: 6.00 Build 0)  -->
<svg version="1.1" id="Ebene_1" xmlns="http://www.w3.org/2000/svg" xmlns:xlink="http://www.w3.org/1999/xlink" x="0px" y="0px"
	 viewBox="0 0 34.8 35.1" enable-background="new 0 0 34.8 35.1" xml:space="preserve">
<g transform="translate(0,0)">
	<path fill="none" stroke="#010202" stroke-width="1.5" stroke-linecap="round" d="M17.4,6.4V0.7"/>
	<path fill="none" stroke="#010202" stroke-width="1.5" stroke-linecap="round" d="M14.9,2.7h5"/>
	<path fill="#FFFFFF" stroke="#010202" stroke-width="1.5" d="M17.4,19.8c0,0,4.5-7.5,3-10.5c0,0-1-2.5-3-2.5s-3,2.5-3,2.5
		C12.9,12.2,17.4,19.8,17.4,19.8"/>
	<path fill="#FFFFFF" stroke="#010202" stroke-width="1.5" stroke-linecap="round" stroke-linejoin="round" d="M6.4,31.8
		c5.5,3.5,15.5,3.5,21,0v-7c0,0,9-4.5,6-10.5c-4-6.5-13.5-3.5-16,4v3.5v-3.5c-3.5-7.5-13-10.5-16-4c-3,6,5,10,5,10V31.8z"/>
	<path fill="none" stroke="#010202" stroke-width="1.5" stroke-linecap="round" stroke-linejoin="round" d="M6.4,24.8
		c5.5-3,15.5-3,21,0"/>
	<path fill="none" stroke="#010202" stroke-width="1.5" stroke-linecap="round" stroke-linejoin="round" d="M6.4,28.2
		c5.5-3,15.5-3,21,0"/>
	<path fill="none" stroke="#010202" stroke-width="1.5" stroke-linecap="round" stroke-linejoin="round" d="M6.4,31.8
		c5.5-3,15.5-3,21,0"/>
</g>
</svg>
