<?xml version="1.0" encoding="utf-8"?>
<!-- Generator: Adobe Illustrator 18.1.1, SVG Export Plug-In . SVG Version: 6.00 Build 0)  -->
<svg version="1.1" id="Ebene_1" xmlns="http://www.w3.org/2000/svg" xmlns:xlink="http://www.w3.org/1999/xlink" x="0px" y="0px"
	 viewBox="0 0 34.5 34.8" enable-background="new 0 0 34.5 34.8" xml:space="preserve">
<g transform="translate(90,45)">
	<g>
		<path fill="#010202" stroke="#010202" stroke-width="1.5" stroke-linejoin="round" d="M-86.2-13.8c3.4-1,10.1,0.4,13.5-2
			c3.4,2.4,10.1,1,13.5,2c0,0,1.7,0.5,3,2c-0.7,1-1.7,1-3,0.5c-3.4-1-10.1,0.5-13.5-1c-3.4,1.5-10.1,0-13.5,1
			c-1.4,0.5-2.3,0.5-3-0.5C-87.9-13.7-86.2-13.8-86.2-13.8z"/>
		<path fill="#010202" stroke="#010202" stroke-width="1.5" stroke-linejoin="round" d="M-80.2-17.8c2.5,2.5,12.5,2.5,15,0
			c0.5-1.5,0-2,0-2c0-2.5-2.5-4-2.5-4c5.5-1.5,6-11.5-5-15.5c-11,4-10.5,14-5,15.5c0,0-2.5,1.5-2.5,4
			C-80.2-19.8-80.8-19.2-80.2-17.8z"/>
		<path fill="#010202" stroke="#010202" stroke-width="1.5" stroke-linejoin="round" d="M-70.2-41.8c0,1.4-1.1,2.5-2.5,2.5
			s-2.5-1.1-2.5-2.5c0-1.4,1.1-2.5,2.5-2.5S-70.2-43.1-70.2-41.8z"/>
	</g>
	<path fill="none" stroke="#FFFFFF" stroke-width="1.5" stroke-linecap="round" d="M-77.8-23.8h10 M-80.2-19.8h15 M-72.8-34.2v5
		 M-75.2-31.8h5"/>
</g>
</svg>
