<?xml version="1.0" encoding="utf-8"?>
<!-- Generator: Adobe Illustrator 18.1.1, SVG Export Plug-In . SVG Version: 6.00 Build 0)  -->
<svg version="1.1" id="Ebene_1" xmlns="http://www.w3.org/2000/svg" xmlns:xlink="http://www.w3.org/1999/xlink" x="0px" y="0px"
	 viewBox="0 0 33.5 33.5" enable-background="new 0 0 33.5 33.5" xml:space="preserve">
<g transform="translate(135,45)">
	<path fill="#010202" stroke="#010202" stroke-width="1.5" stroke-linecap="round" stroke-linejoin="round" d="M-118.2-41.2
		c10.5,1,16.5,8,16,29h-23c0-9,10-6.5,8-21"/>
	<path fill="#010202" stroke="#010202" stroke-width="1.5" stroke-linecap="round" stroke-linejoin="round" d="M-116.2-33.2
		c0.4,2.9-5.5,7.4-8,9c-3,2-2.8,4.3-5,4c-1-0.9,1.4-3,0-3c-1,0,0.2,1.2-1,2c-1,0-4,1-4-4c0-2,6-12,6-12s1.9-1.9,2-3.5
		c-0.7-1-0.5-2-0.5-3c1-1,3,2.5,3,2.5h2c0,0,0.8-2,2.5-3c1,0,1,3,1,3"/>
	<path fill="#FFFFFF" stroke="#FFFFFF" stroke-width="1.5" stroke-linecap="round" stroke-linejoin="round" d="M-130.8-25.8
		c0,0.3-0.2,0.5-0.5,0.5s-0.5-0.2-0.5-0.5s0.2-0.5,0.5-0.5S-130.8-26-130.8-25.8z"/>
	<path fill="#FFFFFF" stroke="#FFFFFF" stroke-width="1.5" stroke-linecap="round" stroke-linejoin="round" d="M-125.3-35.5
		c-0.4,0.7-0.9,1.2-1.2,1c-0.2-0.1-0.1-0.8,0.3-1.5c0.4-0.7,0.9-1.2,1.2-1C-124.8-36.9-124.9-36.2-125.3-35.5z"/>
	<path fill="#FFFFFF" d="M-115.7-40.9l-0.4,1.5l0.5,0.2c3.1,1,5.6,2.5,7.9,6.8s3.2,10.3,2.8,20.2l0,0.5h2.2l0-0.5
		c0.5-10.1-0.9-16.8-3.2-21.3c-2.4-4.5-5.8-6.6-9.2-7.2L-115.7-40.9z"/>
</g>
</svg>
