<?xml version="1.0" encoding="utf-8"?>
<!-- Generator: Adobe Illustrator 18.1.1, SVG Export Plug-In . SVG Version: 6.00 Build 0)  -->
<svg version="1.1" id="Ebene_1" xmlns="http://www.w3.org/2000/svg" xmlns:xlink="http://www.w3.org/1999/xlink" x="0px" y="0px"
	 viewBox="0 0 24.5 32" enable-background="new 0 0 24.5 32" xml:space="preserve">
<g transform="translate(225,45)">
	<path fill="#010202" stroke="#010202" stroke-width="1.5" stroke-linecap="round" d="M-212.8-44.2c-2.2,0-4,1.8-4,4
		c0,0.9,0.3,1.7,0.8,2.4c-1.9,1.1-3.3,3.2-3.3,5.6c0,2,0.9,3.8,2.4,5c-3,1.1-7.4,5.5-7.4,13.5h23c0-7.9-4.4-12.4-7.4-13.5
		c1.5-1.2,2.4-3,2.4-5c0-2.4-1.3-4.5-3.3-5.6c0.5-0.7,0.8-1.5,0.8-2.4C-208.8-42.5-210.5-44.2-212.8-44.2z"/>
</g>
</svg>
