<?xml version="1.0" encoding="utf-8"?>
<!-- Generator: Adobe Illustrator 18.1.1, SVG Export Plug-In . SVG Version: 6.00 Build 0)  -->
<svg version="1.1" id="Ebene_1" xmlns="http://www.w3.org/2000/svg" xmlns:xlink="http://www.w3.org/1999/xlink" x="0px" y="0px"
	 viewBox="0 0 38.5 35.9" enable-background="new 0 0 38.5 35.9" xml:space="preserve">
<g transform="translate(45,45)">
	<g>
		<circle fill="#010202" cx="-42.2" cy="-38.2" r="2.8"/>
		<circle fill="#010202" cx="-34.2" cy="-41.2" r="2.8"/>
		<circle fill="#010202" cx="-25.8" cy="-42.2" r="2.8"/>
		<circle fill="#010202" cx="-17.2" cy="-41.2" r="2.8"/>
		<circle fill="#010202" cx="-9.2" cy="-38.2" r="2.8"/>
	</g>
	<path fill="#010202" stroke="#010202" stroke-width="1.5" stroke-linejoin="round" d="M-39.2-24.2c8.5-1.5,21-1.5,27,0l2.5-12.5
		l-7.5,11.5l-0.3-14.1l-5.2,13.6l-3-14.5l-3,14.5L-34-39.4l-0.3,14.1l-7.5-11.5L-39.2-24.2z"/>
	<path fill="#010202" stroke="#010202" stroke-width="1.5" stroke-linejoin="round" d="M-39.2-24.2c0,2,1.5,2,2.5,4
		c1,1.5,1,1,0.5,3.5c-1.5,1-1.5,2.5-1.5,2.5c-1.5,1.5,0.5,2.5,0.5,2.5c6.5,1,16.5,1,23,0c0,0,1.5-1,0-2.5c0,0,0.5-1.5-1-2.5
		c-0.5-2.5-0.5-2,0.5-3.5c1-2,2.5-2,2.5-4C-20.8-25.8-30.8-25.8-39.2-24.2z"/>
	<path fill="none" stroke="#010202" stroke-width="1.5" stroke-linejoin="round" d="M-37.2-11.8c7.4,2.6,15.6,2.6,23,0"/>
	<path fill="none" stroke="#FFFFFF" stroke-width="1.5" stroke-linecap="round" stroke-linejoin="round" d="M-37.2-21.2
		c7.4-2.6,15.6-2.6,23,0"/>
	<path fill="none" stroke="#FFFFFF" stroke-width="1.5" stroke-linecap="round" stroke-linejoin="round" d="M-35.8-18.8h20"/>
	<path fill="none" stroke="#FFFFFF" stroke-width="1.5" stroke-linecap="round" stroke-linejoin="round" d="M-36.8-15.8
		c7.1,2.4,14.9,2.4,22,0"/>
	<path fill="none" stroke="#FFFFFF" stroke-width="1.5" stroke-linecap="round" stroke-linejoin="round" d="M-37.8-12.8
		c7.7,2.8,16.3,2.8,24,0"/>
</g>
</svg>
