<?xml version="1.0" encoding="utf-8"?>
<!-- Generator: Adobe Illustrator 18.1.1, SVG Export Plug-In . SVG Version: 6.00 Build 0)  -->
<svg version="1.1" id="Ebene_1" xmlns="http://www.w3.org/2000/svg" xmlns:xlink="http://www.w3.org/1999/xlink" x="0px" y="0px"
	 viewBox="0 0 38.5 35.2" enable-background="new 0 0 38.5 35.2" xml:space="preserve">
<g transform="translate(45,0)">
	<path fill="#FFFFFF" stroke="#010202" stroke-width="1.5" stroke-linecap="round" stroke-linejoin="round" d="M-40.2,7.2
		c0,1.1-0.9,2-2,2s-2-0.9-2-2s0.9-2,2-2S-40.2,6.1-40.2,7.2z"/>
	<path fill="#FFFFFF" stroke="#010202" stroke-width="1.5" stroke-linecap="round" stroke-linejoin="round" d="M-23.8,2.7
		c0,1.1-0.9,2-2,2s-2-0.9-2-2s0.9-2,2-2S-23.8,1.6-23.8,2.7z"/>
	<path fill="#FFFFFF" stroke="#010202" stroke-width="1.5" stroke-linecap="round" stroke-linejoin="round" d="M-7.2,7.2
		c0,1.1-0.9,2-2,2s-2-0.9-2-2s0.9-2,2-2S-7.2,6.1-7.2,7.2z"/>
	<path fill="#FFFFFF" stroke="#010202" stroke-width="1.5" stroke-linecap="round" stroke-linejoin="round" d="M-32.2,3.7
		c0,1.1-0.9,2-2,2s-2-0.9-2-2s0.9-2,2-2S-32.2,2.6-32.2,3.7z"/>
	<path fill="#FFFFFF" stroke="#010202" stroke-width="1.5" stroke-linecap="round" stroke-linejoin="round" d="M-15.2,4.2
		c0,1.1-0.9,2-2,2s-2-0.9-2-2s0.9-2,2-2S-15.2,3.1-15.2,4.2z"/>
	<path fill="#FFFFFF" stroke="#010202" stroke-width="1.5" stroke-linejoin="round" d="M-39.2,21.2c8.5-1.5,21-1.5,27,0l2-12l-7,11
		v-14l-5.5,13.5l-3-15l-3,15l-5.5-14v14.5l-7-11L-39.2,21.2z"/>
	<path fill="#FFFFFF" stroke="#010202" stroke-width="1.5" stroke-linejoin="round" d="M-39.2,21.2c0,2,1.5,2,2.5,4
		c1,1.5,1,1,0.5,3.5c-1.5,1-1.5,2.5-1.5,2.5c-1.5,1.5,0.5,2.5,0.5,2.5c6.5,1,16.5,1,23,0c0,0,1.5-1,0-2.5c0,0,0.5-1.5-1-2.5
		c-0.5-2.5-0.5-2,0.5-3.5c1-2,2.5-2,2.5-4C-20.8,19.8-30.8,19.8-39.2,21.2z"/>
	<path fill="none" stroke="#010202" stroke-width="1.5" stroke-linecap="round" stroke-linejoin="round" d="M-36.8,25.2
		c3.5-1,18.5-1,22,0"/>
	<path fill="none" stroke="#010202" stroke-width="1.5" stroke-linecap="round" stroke-linejoin="round" d="M-36.2,28.8
		c6-1,15-1,21,0"/>
</g>
</svg>
